<svg xmlns="http://www.w3.org/2000/svg" viewBox="0 0 241.808 262.619"><g fill="#58A4B0"><path d="M119.93 20.088l.853.128c-.287-.044-.573-.087-.853-.128zM60.402 100.511l-.001.004.056-.026c-.018.008-.038.014-.055.022zM60.457 100.489z"/><path d="M120.903 0C54.13 0 0 54.131 0 120.904c0 44.125 23.641 82.722 58.944 103.833.345-.247.685-.491 1.063-.764 8.625-6.21 7.419-.232 9.868-3.603 3.254-5.988 5.372-16.559 5.372-26.072 0-11.221-.304-25.202-2.154-30.999a41.233 41.233 0 01-.261-.746c-1.956-5.751-4.256-18.058-4.256-18.058s0 4.256-2.53 3.565-2.76-.23-3.795-6.096c-1.035-5.866-3.105-6.671-5.061-10.696-1.956-4.026-3.911-8.052-5.751-15.298-1.84-7.246.46-11.387 4.946-12.077 1.398-.215 2.695.062 3.819.564a3.497 3.497 0 00-.117-.802 3.885 3.885 0 00-.347-.84c.253-.754.462-1.526.663-2.302-.613.277-1.084.626-1.084.626s-.661-2.25 2.042-2.164l.074.003c.364-.533.57-1.142.628-1.778l-.162.017c.067-3.126.026-6.25-.339-9.37a1.86 1.86 0 00-.201-.656c.241-4.02.741-8.677 1.136-12.348.102-.943.196-1.823.278-2.612.514-4.967 2.598-12.221 4.745-16.514l2.642-5.283 5.528-6.062 4.571-2.461s4.443-2.969 8.003-5.296l-.097.063c.114-.461.15-.943.111-1.418l.008-.004c-3.92 1.979-5.761.445-5.761.445 2.079-.294 4.455-1.821 6.801-3.108.533-.78.758-1.764.675-2.717-.423.252-.811.502-1.132.74-.525.39-.954.771-1.299 1.12l.057-.011c-.824.313-1.608.717-2.404 1.279a7.08 7.08 0 01-.873.524l.409-.899c.114-.251 2.928-6.162 14.508-7.23 3.765-.348 9.138-1.441 12.634-2.064l2.761-1.613c-2.574-.049-5.677.02-8.818.395 0 0 2.966-1.38 7.593-1.552a16.687 16.687 0 014.879.529l-.003-.001a3.36 3.36 0 001.619-1.004c-2.101-.307-3.953-.528-4.127-.582-1.207-.373-2.605-.43-3.905-.512.961-.506 4.144-1.593 12.12.033 3.587.731 6.485 1.51 8.703 2.196l-4.492-3.415 3.131.364c.305.035 7.514.906 12.462 4.265.408.277.872.63 1.373 1.038-1.415-2.714-1.856-4.81-1.856-4.81s1.609.288 4.706 5.003c2.119 3.227 4.437 5.322 6.244 7.061-.165-.645-.344-1.229-.513-1.539-.519-.949-2.157-4.831-2.157-4.831s3.365 3.192 5.262 6.901c1.898 3.709 3.192 7.045 4.817 7.876h-.001c4.399 2.355 14.276 8.445 17.313 17.025 2.992 8.453 3.854 17.989 4.423 24.3.157 1.73.292 3.224.44 4.341.42 3.144.345 8.793.213 12.882-.61.838-1.23 1.672-1.823 2.522.287-.412.588-.815.884-1.222.009.554.015 1.109.015 1.664 0 .641.179 1.24.466 1.775l-.018-.002c4.044.584 6.518 1.124 6.569 2.163.083 1.669-.795 3.084-.853 3.175-.084.478-.115.966-.039 1.445l-.023-.057c.051.11.229.724.771 2.108 1.109 2.833.797 5.931-.049 9.01.374.366.703.829.939 1.375.74 1.705.334 3.522-.904 4.059a1.892 1.892 0 01-1.114.11c.099-.064.193-.139.277-.223.349-.349.457-.746.506-1.22.053-.517.058-1.034.058-1.553a1.72 1.72 0 00-.681-1.356c-.55.577-.615 1.55-.199 2.224-.52 1.401-1.081 2.774-1.601 4.094.611.567 1.054 1.479 1.141 2.542.152 1.852-.815 3.442-2.161 3.553a1.895 1.895 0 01-1.09-.253c.115-.029.228-.069.334-.123.443-.218.673-.56.871-.993.217-.472.387-.96.554-1.452a1.731 1.731 0 00-.317-1.651c-2.143 4.905-5.42 10.001-5.42 12.106 0 2.3-.69 8.512-3.796 9.777-3.104 1.265-2.875.919-2.07-5.177.806-6.096 1.381-11.156 0-7.361-1.099 3.023-5.416 27.593-6.831 30.64-.106-.743-.148-1.778-.15-2.935-.718 2.247-1.529 4.467-2.166 6.657-.408 1.399-.809 2.8-1.207 4.201-.044 2.899-.468 30.695-.687 37.233a10.22 10.22 0 00.131 2.103c-.023.204-.061.409-.093.614 1.472.151 2.967.226 4.44.397l-.015.006c4.545-1.612 7.644 1.47 14.37 6.933 35.17-21.143 58.703-59.666 58.703-103.69C241.808 54.131 187.677 0 120.903 0z"/></g><g fill="#FFF"><path d="M87.624 31.725l-.057.011c.345-.349.773-.73 1.299-1.12.321-.238.709-.488 1.132-.74.09-.054.179-.107.274-.162.115-.065.228-.129.35-.195.207-.11.428-.218.656-.327.107-.051.205-.103.317-.153.341-.154.704-.306 1.092-.452.105-.04.222-.076.331-.115.3-.107.608-.212.935-.312.162-.049.332-.096.5-.143a23.743 23.743 0 011.51-.373c.353-.076.722-.144 1.1-.208.184-.032.361-.066.551-.094a31.6 31.6 0 011.809-.224c4.421-.408 8.071-1.259 10.864-2.155l-.003.002c3.105-.826 6.268-2.307 7.843-3.098 1.795.115 2.901.25 2.901.25s-.678-.39-1.879-.781l.001-.001h-.004a16.657 16.657 0 00-5.711-.77c-4.627.172-7.593 1.552-7.593 1.552 3.141-.375 6.244-.444 8.818-.395l-2.761 1.613c-3.497.623-8.87 1.716-12.634 2.064-11.58 1.068-14.394 6.979-14.508 7.23l-.409.899c.298-.153.59-.325.873-.524a10.619 10.619 0 012.403-1.279zM61.898 97.219l.162-.017c.082-.008.164-.015.246-.025.354-1.813.634-3.869.634-5.877 0-4.457.734-11.285 1.27-16.271.102-.945.197-1.828.278-2.619.496-4.791 2.504-11.785 4.572-15.92l2.535-5.069 5.168-5.669 4.356-2.346 10.437-7.299c.79-.553 2.669-2.145 2.669-2.145s-.719-.022-1.631-.075a1.228 1.228 0 00-.153.075l-.049.027a9.867 9.867 0 00-.272.158l-.05.03a27.968 27.968 0 00-.438.269 55.76 55.76 0 00-.495.311l-.033.021c-.334.211-.717.458-1.125.721l-.584.378c-.365.237-.741.481-1.134.738-3.56 2.327-8.003 5.296-8.003 5.296l-4.571 2.461-5.528 6.062-2.642 5.283c-2.146 4.293-4.231 11.547-4.745 16.514-.082.79-.176 1.669-.278 2.612-.395 3.67-.895 8.328-1.136 12.348.101.192.172.41.201.656.366 3.122.406 6.246.339 9.372z"/><path d="M120.782 20.216l.202.031c.287.045.574.09.857.138l.011.001c.279.046.554.094.824.143l.206.038c.271.05.538.1.791.152 9.073 1.85 13.723 4.051 13.77 4.073l7.647 3.669-10.399-7.906c2.428.583 5.653 1.609 8.161 3.311 4.346 2.949 15.494 15.542 15.494 15.542l.507.23c.148.068 14.912 6.879 18.53 17.1 2.92 8.249 3.77 17.655 4.332 23.879.157 1.75.293 3.261.447 4.415.495 3.715.26 11.367.1 15.176.593-.85 1.213-1.684 1.823-2.522.132-4.089.207-9.739-.213-12.882-.148-1.117-.283-2.611-.44-4.341-.569-6.311-1.431-15.847-4.423-24.3-3.037-8.58-12.914-14.669-17.313-17.025h.001c-1.625-.831-2.919-4.167-4.817-7.876-1.896-3.709-5.262-6.901-5.262-6.901s1.639 3.882 2.157 4.831c.169.311.348.895.513 1.539-1.808-1.739-4.125-3.834-6.244-7.061-3.097-4.715-4.706-5.003-4.706-5.003s.441 2.096 1.856 4.81a20.316 20.316 0 00-1.373-1.038c-4.948-3.358-12.157-4.229-12.462-4.265l-3.131-.364 4.492 3.415c-2.218-.686-5.116-1.465-8.703-2.196-7.976-1.626-11.158-.54-12.12-.033 1.299.082 2.698.139 3.905.512.198.06 2.552.335 4.98.708z"/><path d="M148.686 36.385c-1.048-1.026-5.465-4.975-12.859-6.566l.003.009c-.207-.048-.412-.101-.623-.144-.93-.02-1.875-.038-2.787.046a71.91 71.91 0 00-3.898.465c-.743.11-1.47.327-2.209.432-.275.04-.522.155-.797.204-.334.06-.678.072-1.012.138-.785.156-1.433.428-2.066.918-.369.285-.637.6-.96.932-.212.217-.501.45-.44.795.188.076.513-.328.676-.425.664-.393 1.363-.662 2.07-.98.692-.312 1.388-.631 2.155-.667.55-.025 1.064-.131 1.606-.202.963-.126 1.998-.023 2.97-.023h3.392c.862 0 1.699.083 2.557.106 1.91.492 3.685 2.878 5.29 3.109-1.336-.047-2.687.005-4.024.005-.749 0-1.499.004-2.249 0-.435-.002-.813.099-1.233.117-.314.014-.64-.05-.948.021-.268.061-.437.212-.653.351-.332.214-.629.541-.931.832 1.289-.356 2.61-.564 3.956-.484 2.753.162 5.324 1.204 8.062 1.411 1.455.11 2.935.166 4.389-.011a7.97 7.97 0 00.805-.144l.007.002-.004-.002c.119-.026.237-.051.354-.081a28.204 28.204 0 00-.599-.164zM60.815 100.348l.081-.028c.152-.048.307-.089.462-.113 1.007-.151 8.137 1.876 8.137 1.876l2.259-.48a65.156 65.156 0 001.987-.125h.002a42.98 42.98 0 001.247-.117c3.948-.343 16.794-1.246 31.771-.054l-4.371-1.783s-13.14-.574-23.734.337c1.927-1.354 5.331-3.557 5.331-3.557l-3.882.517 6.47-3.105-4.486.173s3.278-2.76 9.489-2.76c4.321 0 11.229 1.586 15.964 3.133a17.35 17.35 0 012.279.807c.995.386 1.787.75 2.288 1.063.374.233.601.46.722.678 1.764 1.337 3.104 3.082 3.583 5.203 4.252.894 7.081 1.883 7.081 1.883s5.78 1.208 8.195 1.208c2.416 0 5.952-1.208 5.952-1.208s3.4-.309 6.829-.636c.094-.003 18.716-.745 22.673-1.089 3.969-.345-2.156-.431-8.885-.431-6.714 0-14.427.181-14.46.182-2.532-.494-4.604-1.281-4.604-2.338 0-2.07 9.489-5.693 9.489-5.693l-1.897 2.07 6.038-1.898-3.277 2.415s3.968-.172 9.489.173c5.52.345 12.076 5.176 12.076 5.176l3.099.321s13.723 2.698 14.671 3.129a.775.775 0 01.262.208c.02.023.037.047.055.072.055.078.1.164.134.258.007.018.016.032.021.051.037.114.061.237.076.364.004.031.006.062.009.094.01.106.015.212.014.318v.079a5.21 5.21 0 01-.024.368l-.006.056c-.011.09-.022.171-.034.247l-.028.161c-.024.131-.046.226-.046.226l.011-.017c.058-.091.936-1.505.853-3.175-.052-1.039-2.525-1.578-6.569-2.163-1.277-.185-2.71-.375-4.277-.586a173.313 173.313 0 01-1.556-.212 256.91 256.91 0 01-1.951-.274c-.672-2.377-2.259-8.637-2.122-14.363.173-7.246 1.553 6.039 2.415 8.281.862 2.243 1.897-3.105 2.07-13.285.173-10.179-2.242-22.083-5.349-26.569-3.105-4.485-11.904-10.006-14.837-9.834-2.934.172-7.418-1.553-11.731-2.07s-15.873-2.416-23.119 1.208l4.659-3.968s-10.007 2.07-13.458 2.07c-2.381 0-10.919-.985-17.232-1.597-.264.062-.528.13-.793.214-2.691.851-5.194 2.071-7.808 3.115-1.253.5-2.553.899-3.792 1.405-.562.79-.912 1.349-.912 1.349l-4.141 3.277s-2.588 3.796-5.176 9.317-3.623 15.7-3.623 15.7l5.694-11.559s-4.486 12.767-5.694 18.46c-1.208 5.693-1.38 11.042-1.38 11.042l1.726-4.658-.603 11.139c-2.317-.323-7.125-.966-9.187-1.043l-.074-.003c-2.703-.086-2.042 2.164-2.042 2.164s.694-.523 1.497-.796zm102.19-10.83s-8.511-1.035-11.271-5.291c-1.744-2.688 11.271 5.291 11.271 5.291zM85.47 73.706c-.168 2.516-.781 4.958-1.612 7.391-.647 1.898-1.438 3.776-2.458 5.508.354-4.924 2.616-10.053 4.07-12.899zm-8.21 9.313c.172-7.591 5.348-16.045 5.348-16.045-.147 4.278-3.951 13.597-5.051 16.208a1.534 1.534 0 00-.299-.106l.002-.057zM69.496 106.847l.776 1.238v-4.264l-.776.678zM173.811 107.517h.007c-.072-.008-.062-.007-.007 0zM156.795 108.496v-.719c-1.208-.086-2.703-.598-2.703 1.096s2.191 1.407 2.703-.377zM88.283 35.256a16.356 16.356 0 001.312-.743c4.831-3.08 8.799-4.845 8.799-4.845l-4.831 1.161a8.143 8.143 0 00-.925.247 12.77 12.77 0 00-1.152.433l-.039.018c-.318.139-.638.292-.959.454l-.168.084c-.332.169-.665.345-.998.528-2.346 1.287-4.722 2.813-6.801 3.108 0 0 1.841 1.534 5.762-.445z"/><path d="M183.479 116.432s.344-3.336.402-5.521c.058-2.185 0-3.277-1.882-4.657s-10.319-1.843-10.319-1.843c-2.867-.438-7.389-.313-11.954.001-.515.036-.995.074-1.448.114 2.878.651 5.022 1.974 6.97 3.25 2.588 1.696 1.725 3.767 1.725 3.767s-1.092-2.875-4.083-4.198c-2.989-1.323-5.98-1.841-9.029-1.294.958.036 2.004.233 3.111.58v-.001s1.663.313 3.446 1.578c1.783 1.265 3.968 2.703 4.715 3.911.748 1.208-1.15.403-2.186.403-1.034 0-2.415.518-2.415.518s1.61-1.438 1.495-2.358c-.084-.681-1.87-1.392-2.887-1.576a5.111 5.111 0 01-10.221-.213c0-.019.003-.037.003-.055-2.096.597-5.124 2.563-4.837 2.708.345.172 2.817 1.495 2.817 1.495s-5.291-.173-5.405-.748c-.114-.575 2.07-2.531 3.393-3.221s3.68-1.667 5.161-2.439c.68-.36 1.068-.583.878-.58-2.367.047-9.145.518-10.266 1.725-.984 1.06-.905 3.716-.699 6.274-.062.326-.02.674.09 1.058.085.959.271 1.271.479 1.264.284.67.624 1.441.906 2.359.69 2.243 3.537 5.866 7.073 7.658 3.536 1.793 13.975 1.054 19.889.968 5.912-.086 4.697-.431 6.336-1.725 1.639-1.294 4.658-2.416 4.572-5.348-.087-2.933 2.501-3.969 2.677-5.953.175-1.984-1.297-3.537-2.591-2.933-1.294.604-4.186-1.448-4.404-3.731-.144-.017-.287-.032-.432-.051l-.749-.1c-.93-.113-1.719 1.03-1.719 0 0-.631.438-1.344 1.046-1.619.103-.045.209-.079.318-.098l.011-.002c.048-.008.097-.011.146-.014l.028-.002c.059-.001.117.002.177.01.336.043.672.089 1.007.135-.133-.019-.088-.013.135.015a11.014 11.014 0 00.719.067c.603-.242 1.629-.121 3.43.184 3.393.576 3.911 2.07 3.853 3.805-.058 1.735.518 6.433.518 6.433zM220.627 250.542c.812.656 1.085.877 1.037.689-.024-.1-.406-.346-1.037-.689z"/><path d="M183.104 224.594c-6.727-5.463-9.825-8.545-14.37-6.933a10.383 10.383 0 00-1.07.446c-.437 1.515 7.51 2.582 9.548 9.805.354 1.253.534 2.686.458 4.343-.396 8.566-4.818 12.197-10.653 14.513 2.88-2.591 4.826-5.097 5.766-7.152 2.516-5.505 3.202-8.105 2.283-10.598-.425-1.152-1.191-2.281-2.283-3.664-1.489-1.887-3.322-2.873-4.904-3.94-3.338 7.039-7.979 6.702-7.979 6.702l.04-.062c.395-.621 3.578-5.745 4.369-10.794.032-.205.069-.41.093-.614a10.285 10.285 0 01-.131-2.103c.219-6.538.643-34.334.687-37.233l.004-.263s-8.973 13.113-12.652 20.934c-3.68 7.821-9.431 18.633-21.623 22.774-10.15 3.446-18.387 4.017-27.366-2.988-2.23-1.375-4.28-3.038-6.038-5.204-2.216-2.731-4.604-5.79-6.298-9.106-5.851-9.649-7.796-18.736-8.146-20.657-.216-1.19 2.011.826 4.43 3.295 1.187 2.144 2.203 4.07 2.816 5.561 1.61 3.911 13.112 13.918 17.138 16.448 4.026 2.529 12.422 2.3 13.572 2.3s9.086 2.358 17.194-2.99c8.109-5.349 17.599-17.943 22.257-25.707 3.689-6.149 6.943-13.499 8.225-19.715a78.2 78.2 0 00-.14 4.415v.046c.002 1.156.044 2.191.15 2.935 1.415-3.047 5.732-27.616 6.831-30.64 1.381-3.795.806 1.266 0 7.361-.805 6.096-1.034 6.441 2.07 5.177 3.105-1.266 3.796-7.478 3.796-9.777 0-2.105 3.277-7.201 5.42-12.106.369.448.515 1.071.317 1.651-.167.492-.337.98-.554 1.452-.198.434-.428.775-.871.993a1.594 1.594 0 01-.334.123c.338.189.708.284 1.09.253 1.346-.11 2.313-1.701 2.161-3.553-.087-1.063-.529-1.975-1.141-2.542.52-1.32 1.081-2.693 1.601-4.094-.416-.674-.351-1.647.199-2.224.409.317.681.808.681 1.356 0 .519-.005 1.036-.058 1.553-.049.474-.157.871-.506 1.22a1.735 1.735 0 01-.277.223c.382.071.763.042 1.114-.11 1.238-.537 1.645-2.354.904-4.059a4.314 4.314 0 00-.939-1.375c.846-3.079 1.158-6.177.049-9.01-.541-1.384-.72-1.998-.771-2.108-.002-.006-.005-.01-.007-.013-.005-.008-.008-.005-.01.005-.004.033.007.158.016.344l.003.06.005.247v.011c0 .111-.003.231-.009.363l-.001.022a7.389 7.389 0 01-.036.432l-.005.033c-.017.132-.039.27-.065.412l-.021.108a6.155 6.155 0 01-.107.437l-.016.056a5.255 5.255 0 01-.177.5c-.016.04-.035.08-.053.12a5.678 5.678 0 01-.594 1.045c.228.935.128 2.145-.25 3.765-.604 2.588-1.036 4.917-2.071 7.16-1.034 2.243-1.812 9.575-1.725 5.435.058-2.734-.869-5.91-.907-9.06-.518 2.189-.938 4.465-2.63 6.271-3.449 3.681-5.176 1.266-11.387 1.841-6.211.574-18.287 1.399-23.349-2.349-3.14-2.326-4.994-3.605-5.951-4.243-.1.868-.151 1.668-.081 2.105.205 1.294.656 12.509.656 12.509s-1.295-2.761-1.726-6.211c-.432-3.451-1.027-13.573-1.027-13.573v.001a72.61 72.61 0 00-.842-2.617c-.92-2.646 1.2-5.131-.92-5.406-2.053-.267-9.411-2.416-10.859 1.495-1.448 3.911.642 4.371 0 7.016-.643 2.646-2.943 4.601-4.093 6.442-1.151 1.84-5.751 4.025-17.829 4.025-2.991 0-5.792-.078-8.368-.227 3.768-.327 8.165-.871 12.451-1.317 9.316-.968 9.834-4.725 10.869-6.364s.345-1.898 1.64-3.623c1.293-1.726 2.554-6.662 1.26-9.46-1.294-2.799-8.765-2.962-14.718-3.48-5.952-.517-5.003.518-6.556.432-.758-.042-.014.061.935.573.043.094.085.185.111.289.064.251.094.637-.073.855-.103.134-.256.238-.37.363-.1.11-.199.226-.302.335-.157.168-.173.341-.172.567 0 .214.08.349.215.51.148.176.258.41.476.513.087.041.18.053.269.09.087.037.152.084.248.091.159.012.325-.005.484-.002.475.007.856-.492 1.102-.85.046-.066.086-.137.122-.209.043.224.067.462.061.718-.086 3.412-4.055 4.524-5.693 4.438-1.639-.086-3.192-1.466-3.709-3.45-.518-1.984-1.208-1.553-3.451-.259a15.87 15.87 0 01-1.022.539c-.592.732.712 2.324 2.489 2.395 2.156.086 1.158 2.156-1.319 1.38-2.264-.709-5.651-1.938-4.326-3.621.799-1.257 7.928-4.15 9.699-4.488 1.203-.229.276-.724-.559-1.106-.062.003-.126.009-.189.014a1.832 1.832 0 01-.991.123c-4.281.745-10.184 4.126-9.475 2.868.754-1.34 5.245-3.64 7.088-3.779-1.614-.031-4.074.041-7.692.329-7.591.604-6.556 5.521-6.642 9.575 0 0-.69 0-.006 5.262.523 4.022 3.484 6.647 6.077 8.267-1.964-.462-3.512-1.007-4.575-1.625-3.565-2.07-2.185-10.006-4.716-12.076-2.53-2.071-5.981-2.991-5.981-2.991s.345 11.042.46 15.298c.115 4.255 1.15 11.501 1.15 11.501l1.036-7.246-.115 11.617s-1.725 2.301-1.955-1.266c-.23-3.565-1.61-17.483-1.61-17.483s-2.53-13.091-2.53-13.734a.645.645 0 00-.067-.217c-.011-.025-.026-.053-.04-.081a3.528 3.528 0 00-.152-.261l-.059-.092a6.27 6.27 0 00-.317-.423l-.065-.077a8.818 8.818 0 00-.362-.406l-.133-.138a10.493 10.493 0 00-.463-.443l-.083-.077a10.265 10.265 0 00-.633-.51c-.051-.038-.105-.075-.158-.112a9.981 9.981 0 00-.573-.38c-.066-.041-.132-.082-.2-.122a8.73 8.73 0 00-.811-.421c-1.124-.502-2.421-.779-3.819-.564-4.486.69-6.786 4.831-4.946 12.077 1.84 7.246 3.796 11.271 5.751 15.298 1.955 4.025 4.025 4.83 5.061 10.696 1.035 5.865 1.265 5.405 3.795 6.096s2.53-3.565 2.53-3.565 2.3 12.307 4.256 18.058c.084.249.172.498.261.746 1.851 5.797 2.154 19.778 2.154 30.999 0 9.514-2.118 20.084-5.372 26.072-2.449 3.37-1.243-2.607-9.868 3.603l-1.063.764c-7.515 5.395-7.432 5.089-15.845 8.553-6.139 2.528-19.999 9.001-28.523 13.271v1.493c2.977-1.168 6.28-2.414 8.683-3.032 6.038-1.553 13.285-9.315 13.457-1.38.172 7.937-1.725 11.042-1.725 11.042s8.108-10.869 9.489-15.01c1.38-4.142 6.556-8.972 9.316-7.074 2.76 1.898-5.176 14.32-5.176 14.32s9.144-8.454 9.834-11.214c.69-2.761 5.008-3.23 5.162-5.86a1541.83 1541.83 0 013.81 8.39c.92 2.071 21.854 24.384 52.218 24.384 16.011 0 28.886-4.157 38.021-9.268.201-.103.407-.218.626-.355.215-.124.428-.247.638-.371 4.653-2.542 14.199-4.121 18.777-10.709 4.795-6.901 8.073-6.21 11.351-1.897 2.898 3.812 2.295 11.261 4.617 15.441.311-.012.62-.021.929-.03-.321-5.157-1.061-16.989-1.061-16.979 0 .015 7.246 5.363 9.834 11.056 2.589 5.694 8.454 13.112 8.454 13.112s-7.073-18.115-7.073-18.805c0-.589 12.194 4.73 15.87 6.729-2.181-1.763-8.267-6.68-22.599-15.355-6.583-3.994-11.284-7.646-14.926-10.604zm-2.415-94.475l.862 3.173c-.172 3.949-2.934 4.073-3.019 2.348-.086-1.725.173-3.624 2.157-5.521zm-15.182 25.879c0-2.156-1.034-5.306-2.933-7.678 5.219.733 2.933 9.834 2.933 7.678zm-55.729-50.553c.261.014.472.132.695.261.238.137.471.303.707.436.17.096.358.094.541.166l.39.153c.562.226.975.62 1.443.975.234.178.327.319.472.578.122.218.549.577.401.858-.148-.097-.339-.062-.507-.061-.218.001-.326-.014-.515-.108-.477-.238-.826-.645-1.28-.91-.433-.253-.906-.501-1.311-.811-.209-.161-.338-.41-.534-.588-.217-.197-.403-.168-.673-.171l-.69-.776c.286 0 .577-.016.861-.002zm-1.291 3.712c-.776-.431-5.214-4.345-3.364-3.709 2.76.949 6.987 4.054 6.901 4.917-.086.863-.69 1.208-3.795 2.071-3.105.862-4.141 0-4.141 0s1.553-.346 3.795-1.036c2.243-.691 1.38-1.812.604-2.243zm-9.23 8.539c2.416 0 8.971-2.415 11.818-3.019h2.157c-8.024 5.952-16.391 3.019-13.975 3.019zm-13.889 41.867s-.92-8.855 6.096-9.374c-4.919 3.025-6.096 9.374-6.096 9.374zm7.423 22.473c1.457 1.421 2.978 2.789 4.197 4.459 1.914 2.622 3.948 5.078 6.288 7.272-3.416-.265-7.483-6.953-10.485-11.731zm2.7-3.41c1.457 1.42 2.979 2.788 4.197 4.457.029.041.059.08.088.119.128.846.273 1.688.445 2.521-1.692-2.216-3.327-4.865-4.73-7.097zm21.593 4.11c1.505-.409 2.844-.729 4.507-.261 1.633.461 3.169 1.288 4.728 1.979.922 1.354-7.878-.463-9.235-1.718zm31.429-.7s.818-1.788 1.782-3.639c1.052-1.144 2.111-2.28 3.041-3.526.012.125.015.273.008.45-.172 4.485-4.831 6.715-4.831 6.715zm1.467-38.374c3.806 1.723 6.856 4.297 8.509 5.898-1.173-.783-2.434-1.436-3.721-2.119-1.176-.624-2.266-1.378-3.324-2.182-1.091-.829-2.326-1.472-3.308-2.429-.09-.088-.171-.184-.256-.276.596.369 1.287.74 2.1 1.108zm-2.042 9.805c.699 0 1.266.67 1.266 1.495 0 .826-.566 1.495-1.266 1.495-.698 0-1.265-.669-1.265-1.495 0-.825.566-1.495 1.265-1.495zm-13.051-.532c.131 0 .257.014.38.034.091-.688.419-1.803.694-2.808.093-.205.157-.411.228-.634.052-.166.082-.32.1-.481.007-.065.019-.128.019-.199 0-.034.002-.07.004-.107a.502.502 0 00-.034-.248c-.084-.165-.2-.031-.316.033-.073.04-.157.08-.225.127-.091.063-.168.183-.251.263-.087.086-.17.178-.268.258-.041.033-.084.063-.128.094l-1.586.291v-.288c1.495-.747 5.177-3.048 6.786-2.99 1.61.058.346 2.99.346 2.99s-1.323-.575-2.128-.402c-.396.085-.777.1-1.063.094-.051 1.017-.173 2.318-.401 2.982-.271.785-.477 1.283-.646 1.587.437.405.713.983.713 1.627a2.222 2.222 0 11-2.224-2.223zm-7.076-29.832h.068c-.291 2.887-1.972 5.1-4.884 5.9-1.112.306-3.263.716-5.037.532 1.938-.775 7.934-3.362 9.853-6.432zm-4.376 29.186c-.476-1.378-.483-2.366-.368-3.019.371.261.707.585.992.951-.126.797.774 2.256 1.074 3.106a2.222 2.222 0 11-1.053.547c-.169-.303-.374-.801-.645-1.585zm2.152-20.558a6.89 6.89 0 01-2.246 1.066c-1.112.306-3.263.718-5.038.534a44.61 44.61 0 003.474-1.573c1.27.039 2.54.031 3.81-.027zm-8.293 15.175c2.24-1.447 5.018.434 7.396 1.215.785.674 1.338 1.206 1.338 1.206v.862s-1.956-2.012-2.934-1.955c-.978.058-.574 1.381-.574 1.381s-4.486.172-5.406-2.07a2.719 2.719 0 01-.146-.47 1.88 1.88 0 00.326-.169zm-.986-9.081c-3.105 1.726-5.116 4.256-4.283 7.361.832 3.105 3.018 4.716 3.018 4.716s-1.836-.054-3.399-.532c-1.03-1.377-1.842-2.888-2.297-4.534.341-2.988 2.149-6.714 6.961-7.011zm0 24.834c7.016-.47 10.006 1.85 14.607.93 4.602-.92 12.652.806 16.966.69s6.613-3.796 7.534-1.035c.919 2.761-4.602 2.99-5.637 2.99s-2.761.46-8.672 2.301c-5.911 1.84-9.271.69-15.079 1.158-5.81.468-15.125-1.389-16.681-1.389-1.555 0 3.098 5.477 8.611 5.176 5.513-.301 13.992 1.726 15.545 1.726 1.554 0 1.438 2.186-7.476 2.53-8.915.345-14.78-5.062-17.31-6.211-2.531-1.15-8.396-7.017-7.707-4.889.69 2.129 1.84 9.145-.896 5.004s-3.943-9.525-2.899-10.007c1.496-.69 12.078 1.495 19.094 1.026zm-25.764-1.14c.115 4.945-5.751-7.707 8.972-9.202 3.442-.35-9.087 4.256-8.972 9.202zm9.179-26.793c-2.342.358-9.697 1.656-14.441-2.451 4.311.658 12.024 2.244 14.441 2.451zm-41.614-22.665c-1.208.69-.862 3.565-.862 6.211s.115 9.144-.173 8.684c-.287-.46-3.45-9.777-3.681-13.342-.23-3.565.863-5.521 2.646-5.837 1.783-.316 3.415 1.92 5.866 4.227 2.933 2.76 2.357 9.776.69 7.706-1.668-2.071.173-3.623-.69-5.176s-2.589-3.163-3.796-2.473zm5.355 24.44c-.466-.862-3.687-3.047-3.745-4.485-.057-1.438-1.265-4.715.345-6.728s2.301-4.199 3.911-2.761c1.801 1.609-2.301 5.751 0 10.525 2.3 4.773-.044 4.313-.511 3.449zm13.508 15.125c.637-5.184.986 8.613 2.582 17.574.335 1.588-.928.377-2.173-1.498-.443-5.173-.881-12.228-.409-16.076z"/><path d="M94.897 103.529l.084.032a5.686 5.686 0 00-.077-.036l-.007.004zM94.981 103.561l.007.003h.002z"/></g></svg>